<?xml version="1.0" encoding="utf-8"?>
<!-- Generator: Adobe Illustrator 25.0.0, SVG Export Plug-In . SVG Version: 6.00 Build 0)  -->
<svg version="1.1" id="Layer_1" xmlns="http://www.w3.org/2000/svg" xmlns:xlink="http://www.w3.org/1999/xlink" x="0px" y="0px"
	 viewBox="0 0 100 100" style="enable-background:new 0 0 100 100;" xml:space="preserve">
<g>
	<path d="M86.5,32.1c-0.2-0.5-0.5-0.9-0.9-1.3L61.1,6.2c-0.4-0.4-0.8-0.7-1.3-0.9c-0.5-0.2-1-0.3-1.6-0.3H25.5
		c-3.3,0-6.4,1.3-8.7,3.6c-2.3,2.3-3.6,5.4-3.6,8.7v65.5c0,3.3,1.3,6.4,3.6,8.7c2.3,2.3,5.4,3.6,8.7,3.6h49.1c3.3,0,6.4-1.3,8.7-3.6
		c2.3-2.3,3.6-5.4,3.6-8.7V33.6C86.8,33.1,86.7,32.6,86.5,32.1z M62.3,19l10.6,10.6H62.3V19z M77.4,85.6c-0.8,0.8-1.8,1.2-2.9,1.2
		H25.5c-1.1,0-2.1-0.4-2.9-1.2c-0.8-0.8-1.2-1.8-1.2-2.9V17.3c0-1.1,0.4-2.1,1.2-2.9c0.8-0.8,1.8-1.2,2.9-1.2h28.6v20.5
		c0,2.3,1.8,4.1,4.1,4.1h20.5v45C78.6,83.8,78.2,84.8,77.4,85.6z"/>
	<path d="M66.4,50H33.6c-2.3,0-4.1,1.8-4.1,4.1c0,2.3,1.8,4.1,4.1,4.1h32.7c2.3,0,4.1-1.8,4.1-4.1C70.5,51.8,68.6,50,66.4,50z"/>
	<path d="M66.4,66.4H33.6c-2.3,0-4.1,1.8-4.1,4.1c0,2.3,1.8,4.1,4.1,4.1h32.7c2.3,0,4.1-1.8,4.1-4.1C70.5,68.2,68.6,66.4,66.4,66.4z
		"/>
	<path d="M33.6,41.8h8.2c2.3,0,4.1-1.8,4.1-4.1c0-2.3-1.8-4.1-4.1-4.1h-8.2c-2.3,0-4.1,1.8-4.1,4.1C29.5,40,31.4,41.8,33.6,41.8z"/>
</g>
</svg>
