<?xml version="1.0" encoding="utf-8"?>
<!-- Generator: Adobe Illustrator 25.0.0, SVG Export Plug-In . SVG Version: 6.00 Build 0)  -->
<svg version="1.1" id="Layer_1" xmlns="http://www.w3.org/2000/svg" xmlns:xlink="http://www.w3.org/1999/xlink" x="0px" y="0px"
	 viewBox="0 0 100 100" style="enable-background:new 0 0 100 100;" xml:space="preserve">
<style type="text/css">
	.st0{fill:none;}
</style>
<rect x="37.7" y="38.1" class="st0" width="24" height="24"/>
<path d="M90.9,9.1H66.4c-5.5,0-10.6,2.1-14.5,6c-0.7,0.7-1.3,1.5-1.9,2.3c-0.6-0.8-1.2-1.6-1.9-2.3c-3.9-3.9-9-6-14.5-6H9.1
	C6.8,9.1,5,10.9,5,13.2v61.4c0,2.3,1.8,4.1,4.1,4.1h28.6c2.2,0,4.2,0.9,5.8,2.4c1.5,1.5,2.4,3.6,2.4,5.8c0,2.3,1.8,4.1,4.1,4.1
	s4.1-1.8,4.1-4.1c0-2.2,0.9-4.3,2.4-5.8s3.6-2.4,5.8-2.4h28.6c2.3,0,4.1-1.8,4.1-4.1V13.2C95,10.9,93.2,9.1,90.9,9.1z M45.9,72.6
	c-2.5-1.4-5.3-2.2-8.2-2.2H13.2V17.3h20.5c3.2,0,6.4,1.3,8.7,3.6c2.3,2.3,3.6,5.4,3.6,8.7V72.6z M86.8,70.5H62.3
	c-2.9,0-5.7,0.8-8.2,2.2V29.5c0-3.3,1.3-6.4,3.6-8.7c2.3-2.3,5.4-3.6,8.7-3.6h20.5V70.5z"/>
</svg>
