<?xml version="1.0" encoding="utf-8"?>
<!-- Generator: Adobe Illustrator 25.0.0, SVG Export Plug-In . SVG Version: 6.00 Build 0)  -->
<svg version="1.1" id="Layer_1" xmlns="http://www.w3.org/2000/svg" xmlns:xlink="http://www.w3.org/1999/xlink" x="0px" y="0px"
	 viewBox="0 0 100 100" style="enable-background:new 0 0 100 100;" xml:space="preserve">
<style type="text/css">
	.st0{fill:none;}
</style>
<rect x="37.7" y="38.1" class="st0" width="24" height="24"/>
<path d="M78.6,13.2h-8.2V9.1c0-2.3-1.8-4.1-4.1-4.1s-4.1,1.8-4.1,4.1v4.1H37.7V9.1c0-2.3-1.8-4.1-4.1-4.1s-4.1,1.8-4.1,4.1v4.1h-8.2
	c-6.8,0-12.3,5.5-12.3,12.3v57.3c0,6.8,5.5,12.3,12.3,12.3h57.3c6.8,0,12.3-5.5,12.3-12.3V25.5C90.9,18.7,85.4,13.2,78.6,13.2z
	 M21.4,21.4h8.2v4.1c0,2.3,1.8,4.1,4.1,4.1s4.1-1.8,4.1-4.1v-4.1h24.5v4.1c0,2.3,1.8,4.1,4.1,4.1s4.1-1.8,4.1-4.1v-4.1h8.2
	c2.3,0,4.1,1.8,4.1,4.1v12.3H17.3V25.5C17.3,23.2,19.1,21.4,21.4,21.4z M78.6,86.8H21.4c-2.3,0-4.1-1.8-4.1-4.1V45.9h65.5v36.8
	C82.7,85,80.9,86.8,78.6,86.8z"/>
</svg>
