<?xml version="1.0" encoding="utf-8"?>
<!-- Generator: Adobe Illustrator 25.0.0, SVG Export Plug-In . SVG Version: 6.00 Build 0)  -->
<svg version="1.1" id="Layer_1" xmlns="http://www.w3.org/2000/svg" xmlns:xlink="http://www.w3.org/1999/xlink" x="0px" y="0px"
	 viewBox="0 0 100 100" style="enable-background:new 0 0 100 100;" xml:space="preserve">
<path d="M85,5H15C9.5,5,5,9.5,5,15v70c0,5.5,4.5,10,10,10h70c5.5,0,10-4.5,10-10V15C95,9.5,90.5,5,85,5z M80.2,33.5L43.5,70.2
	c-0.9,0.9-2.2,1.5-3.5,1.5c-1.3,0-2.6-0.5-3.5-1.5L19.8,53.5c-2-2-2-5.1,0-7.1s5.1-2,7.1,0L40,59.6l33.1-33.1c2-2,5.1-2,7.1,0
	S82.2,31.6,80.2,33.5z"/>
</svg>
