<?xml version="1.0" encoding="utf-8"?>
<!-- Generator: Adobe Illustrator 25.0.0, SVG Export Plug-In . SVG Version: 6.00 Build 0)  -->
<svg version="1.1" id="Layer_1" xmlns="http://www.w3.org/2000/svg" xmlns:xlink="http://www.w3.org/1999/xlink" x="0px" y="0px"
	 viewBox="0 0 100 100" style="enable-background:new 0 0 100 100;" xml:space="preserve">
<style type="text/css">
	.st0{fill:none;}
</style>
<rect x="37.7" y="38.1" class="st0" width="24" height="24"/>
<path d="M71.3,51.2c-3.2-3.2-7.4-4.9-11.9-4.9h-5.6V27.5h15c2.1,0,3.7-1.7,3.7-3.7S70.8,20,68.7,20h-15V8.7C53.8,6.7,52.1,5,50,5
	s-3.7,1.7-3.7,3.7V20h-5.6c-4.5,0-8.7,1.8-11.9,4.9c-3.2,3.2-4.9,7.4-4.9,11.9c0,4.5,1.8,8.7,4.9,11.9c3.2,3.2,7.4,4.9,11.9,4.9h5.6
	v18.8H27.5c-2.1,0-3.7,1.7-3.7,3.7s1.7,3.7,3.7,3.7h18.7v11.2c0,2.1,1.7,3.7,3.7,3.7s3.7-1.7,3.7-3.7V80h5.6c4.5,0,8.7-1.8,11.9-4.9
	c3.2-3.2,4.9-7.4,4.9-11.9C76.2,58.6,74.5,54.4,71.3,51.2z M40.6,46.2c-2.5,0-4.9-1-6.6-2.7c-1.8-1.8-2.7-4.1-2.7-6.6
	c0-2.5,1-4.9,2.7-6.6c1.8-1.8,4.1-2.7,6.6-2.7h5.6v18.7H40.6z M66,69.8c-1.7,1.7-4.2,2.7-6.6,2.7h-5.6V53.7h5.6c2.5,0,4.9,1,6.6,2.7
	c1.7,1.7,2.7,4.2,2.7,6.6C68.7,65.6,67.8,68,66,69.8z"/>
</svg>
