<?xml version="1.0" encoding="utf-8"?>
<!-- Generator: Adobe Illustrator 25.0.0, SVG Export Plug-In . SVG Version: 6.00 Build 0)  -->
<svg version="1.1" id="Layer_1" xmlns="http://www.w3.org/2000/svg" xmlns:xlink="http://www.w3.org/1999/xlink" x="0px" y="0px"
	 viewBox="0 0 100 100" style="enable-background:new 0 0 100 100;" xml:space="preserve">
<g>
	<path d="M20,46.2c2.1,0,3.8-1.7,3.8-3.8V16.2c0-2.1-1.7-3.8-3.8-3.8s-3.8,1.7-3.8,3.8v26.3C16.3,44.6,17.9,46.2,20,46.2z"/>
	<path d="M50,46.2c-2.1,0-3.8,1.7-3.8,3.8v33.8c0,2.1,1.7,3.8,3.8,3.8s3.8-1.7,3.8-3.8V50C53.8,47.9,52.1,46.2,50,46.2z"/>
	<path d="M80,53.8c2.1,0,3.8-1.7,3.8-3.8V16.2c0-2.1-1.7-3.8-3.8-3.8s-3.8,1.7-3.8,3.8V50C76.2,52.1,77.9,53.8,80,53.8z"/>
	<path d="M31.3,53.8H8.8c-2.1,0-3.8,1.7-3.8,3.8s1.7,3.8,3.8,3.8h7.5v22.5c0,2.1,1.7,3.8,3.8,3.8s3.8-1.7,3.8-3.8V61.3h7.5
		c2.1,0,3.8-1.7,3.8-3.8S33.3,53.8,31.3,53.8z"/>
	<path d="M61.2,31.2h-7.5v-15c0-2.1-1.7-3.8-3.8-3.8s-3.8,1.7-3.8,3.8v15h-7.5c-2.1,0-3.8,1.7-3.8,3.8s1.7,3.8,3.8,3.8h22.5
		c2.1,0,3.8-1.7,3.8-3.8S63.3,31.2,61.2,31.2z"/>
	<path d="M91.2,61.3H68.7c-2.1,0-3.8,1.7-3.8,3.8c0,2.1,1.7,3.8,3.8,3.8h7.5v15c0,2.1,1.7,3.8,3.8,3.8s3.8-1.7,3.8-3.8v-15h7.5
		c2.1,0,3.8-1.7,3.8-3.8C95,62.9,93.3,61.3,91.2,61.3z"/>
</g>
</svg>
