<?xml version="1.0" encoding="utf-8"?>
<!-- Generator: Adobe Illustrator 25.0.0, SVG Export Plug-In . SVG Version: 6.00 Build 0)  -->
<svg version="1.1" id="Layer_1" xmlns="http://www.w3.org/2000/svg" xmlns:xlink="http://www.w3.org/1999/xlink" x="0px" y="0px"
	 viewBox="0 0 100 100" style="enable-background:new 0 0 100 100;" xml:space="preserve">
<path d="M84.4,9.5c-1.5-0.7-3.2-0.4-4.4,0.7c0,0-3.6,3-13.6,3c-5.3,0-10-1.8-14.8-3.8C46.1,7.2,40.6,5,33.6,5
	c-13.3,0-18.4,4.4-19.3,5.3c-0.8,0.8-1.2,1.8-1.2,2.9v49.1v28.6c0,2.3,1.8,4.1,4.1,4.1s4.1-1.8,4.1-4.1V64.5
	c1.8-0.9,5.5-2.2,12.3-2.2c5.3,0,10,1.8,14.8,3.8c5.4,2.2,11,4.4,17.9,4.4c13.3,0,18.4-4.4,19.3-5.3c0.8-0.8,1.2-1.8,1.2-2.9V13.2
	C86.8,11.6,85.8,10.2,84.4,9.5z M78.6,60.1c-1.8,0.9-5.6,2.2-12.3,2.2c-5.3,0-10-1.8-14.8-3.8c-5.4-2.2-11-4.4-17.9-4.4
	c-5.3,0-9.3,0.7-12.3,1.6V15.4c1.8-0.9,5.6-2.2,12.3-2.2c5.3,0,10,1.8,14.8,3.8c5.4,2.2,11,4.4,17.9,4.4c5.3,0,9.3-0.7,12.3-1.6
	V60.1z"/>
</svg>
