<?xml version="1.0" encoding="utf-8"?>
<!-- Generator: Adobe Illustrator 25.0.0, SVG Export Plug-In . SVG Version: 6.00 Build 0)  -->
<svg version="1.1" id="Layer_1" xmlns="http://www.w3.org/2000/svg" xmlns:xlink="http://www.w3.org/1999/xlink" x="0px" y="0px"
	 viewBox="0 0 100 100" style="enable-background:new 0 0 100 100;" xml:space="preserve">
<path d="M50,5C25.2,5,5,25.2,5,50c0,24.8,20.2,45,45,45c24.8,0,45-20.2,45-45C95,25.2,74.8,5,50,5z M86.6,45.9H70.2
	c-0.9-11.3-4.7-22.1-10.9-31.5C73.8,18.2,84.9,30.6,86.6,45.9z M38,54.1h24c-1,11.1-5.2,21.7-12,30.5C43.1,75.7,39,65.1,38,54.1z
	 M38,45.9c1-11.1,5.2-21.7,12-30.5c6.9,8.8,11,19.4,12,30.5H38z M40.7,14.4c-6.2,9.4-10,20.1-10.9,31.5H13.4
	C15.1,30.6,26.2,18.2,40.7,14.4z M13.4,54.1h16.4c0.9,11.3,4.7,22.1,10.9,31.5C26.2,81.8,15.1,69.4,13.4,54.1z M59.3,85.6
	c6.2-9.4,10-20.1,10.9-31.5h16.4C84.9,69.4,73.8,81.8,59.3,85.6z"/>
</svg>
