<?xml version="1.0" encoding="utf-8"?>
<!-- Generator: Adobe Illustrator 25.0.0, SVG Export Plug-In . SVG Version: 6.00 Build 0)  -->
<svg version="1.1" id="Layer_1" xmlns="http://www.w3.org/2000/svg" xmlns:xlink="http://www.w3.org/1999/xlink" x="0px" y="0px"
	 viewBox="0 0 100 100" style="enable-background:new 0 0 100 100;" xml:space="preserve">
<path d="M89.3,34.5L52.5,5.9c-1.5-1.1-3.5-1.1-5,0L10.7,34.5c-1,0.8-1.6,2-1.6,3.2v45c0,3.3,1.3,6.4,3.6,8.7
	c2.3,2.3,5.4,3.6,8.7,3.6h57.3c3.3,0,6.4-1.3,8.7-3.6c2.3-2.3,3.6-5.4,3.6-8.7v-45C90.9,36.5,90.3,35.3,89.3,34.5z M58.2,86.8H41.8
	V54.1h16.4V86.8z M82.7,82.7c0,1.1-0.4,2.1-1.2,2.9c-0.8,0.8-1.8,1.2-2.9,1.2H66.4V50c0-2.3-1.8-4.1-4.1-4.1H37.7
	c-2.3,0-4.1,1.8-4.1,4.1v36.8H21.4c-1.1,0-2.1-0.4-2.9-1.2c-0.8-0.8-1.2-1.8-1.2-2.9v-43L50,14.3l32.7,25.5V82.7z"/>
</svg>
