<?xml version="1.0" encoding="utf-8"?>
<!-- Generator: Adobe Illustrator 25.0.0, SVG Export Plug-In . SVG Version: 6.00 Build 0)  -->
<svg version="1.1" id="Layer_1" xmlns="http://www.w3.org/2000/svg" xmlns:xlink="http://www.w3.org/1999/xlink" x="0px" y="0px"
	 viewBox="0 0 100 100" style="enable-background:new 0 0 100 100;" xml:space="preserve">
<style type="text/css">
	.st0{fill:#020202;}
</style>
<path class="st0" d="M82.7,13.2H17.3C10.5,13.2,5,18.7,5,25.5v49.1c0,6.8,5.5,12.3,12.3,12.3h65.5c6.8,0,12.3-5.5,12.3-12.3V25.5
	C95,18.7,89.5,13.2,82.7,13.2z M17.3,21.4h65.5c1.6,0,3,0.9,3.6,2.3L50,49.1L13.6,23.6C14.3,22.3,15.7,21.4,17.3,21.4z M82.7,78.6
	H17.3c-2.3,0-4.1-1.8-4.1-4.1V33.3l34.5,24.1c0.7,0.5,1.5,0.7,2.3,0.7s1.6-0.2,2.3-0.7l34.5-24.1v41.2C86.8,76.8,85,78.6,82.7,78.6z
	"/>
</svg>
