<?xml version="1.0" encoding="utf-8"?>
<!-- Generator: Adobe Illustrator 25.0.0, SVG Export Plug-In . SVG Version: 6.00 Build 0)  -->
<svg version="1.1" id="Layer_1" xmlns="http://www.w3.org/2000/svg" xmlns:xlink="http://www.w3.org/1999/xlink" x="0px" y="0px"
	 viewBox="0 0 100 100" style="enable-background:new 0 0 100 100;" xml:space="preserve">
<path d="M80.6,95H67.5c-3.1,0-5.6-2.5-5.6-5.6s2.5-5.6,5.6-5.6h13.1c0.8,0,1.6-0.3,2.2-0.9c0.6-0.6,0.9-1.4,0.9-2.2V67.5
	c0-3.1,2.5-5.6,5.6-5.6s5.6,2.5,5.6,5.6v13.1c0,3.8-1.5,7.5-4.2,10.2C88.1,93.5,84.5,95,80.6,95z M32.5,95H19.4
	c-3.8,0-7.4-1.5-10.2-4.2C6.5,88.1,5,84.5,5,80.6V67.5c0-3.1,2.5-5.6,5.6-5.6s5.6,2.5,5.6,5.6v13.1c0,0.8,0.3,1.6,0.9,2.2
	c0.6,0.6,1.4,0.9,2.2,0.9h13.1c3.1,0,5.6,2.5,5.6,5.6S35.6,95,32.5,95z M89.4,38.1c-3.1,0-5.6-2.5-5.6-5.6V19.4
	c0-0.8-0.3-1.6-0.9-2.2c-0.6-0.6-1.4-0.9-2.2-0.9H67.5c-3.1,0-5.6-2.5-5.6-5.6S64.4,5,67.5,5h13.1c3.8,0,7.4,1.5,10.2,4.2
	c2.7,2.7,4.2,6.3,4.2,10.2v13.1C95,35.6,92.5,38.1,89.4,38.1z M10.6,38.1c-3.1,0-5.6-2.5-5.6-5.6V19.4c0-3.8,1.5-7.5,4.2-10.2
	C11.9,6.5,15.5,5,19.4,5h13.1c3.1,0,5.6,2.5,5.6,5.6s-2.5,5.6-5.6,5.6H19.4c-0.8,0-1.6,0.3-2.2,0.9c-0.6,0.6-0.9,1.4-0.9,2.2v13.1
	C16.3,35.6,13.7,38.1,10.6,38.1z"/>
<path d="M49.6,79.5c-3.1,0-5.6-2.5-5.6-5.6V30.1c0-3.1,2.5-5.6,5.6-5.6s5.6,2.5,5.6,5.6v43.7C55.3,76.9,52.7,79.5,49.6,79.5z"/>
<path d="M67.1,79.5c-3.1,0-5.6-2.5-5.6-5.6V30.1c0-3.1,2.5-5.6,5.6-5.6c3.1,0,5.6,2.5,5.6,5.6v43.7C72.7,76.9,70.2,79.5,67.1,79.5z"
	/>
<path d="M32.1,79.5c-3.1,0-5.6-2.5-5.6-5.6V30.1c0-3.1,2.5-5.6,5.6-5.6s5.6,2.5,5.6,5.6v43.7C37.7,76.9,35.2,79.5,32.1,79.5z"/>
</svg>
