<?xml version="1.0" encoding="utf-8"?>
<!-- Generator: Adobe Illustrator 25.0.0, SVG Export Plug-In . SVG Version: 6.00 Build 0)  -->
<svg version="1.1" id="Layer_1" xmlns="http://www.w3.org/2000/svg" xmlns:xlink="http://www.w3.org/1999/xlink" x="0px" y="0px"
	 viewBox="0 0 100 100" style="enable-background:new 0 0 100 100;" xml:space="preserve">
<path d="M50,95c-4.4,0-8.8-0.6-13-1.9C30,91,23.6,87.1,18.4,82c-5.2-5.1-9.1-11.6-11.3-18.6S4.4,49,5.8,41.7c1.3-7.2,4.5-14,9-19.8
	C19.3,16.3,25.3,11.7,32,8.7c2.1-0.9,4.5,0,5.4,2.1c0.9,2.1,0,4.5-2.1,5.4c-5.5,2.4-10.4,6.1-14.1,10.8c-3.7,4.7-6.3,10.3-7.4,16.2
	c-1.1,5.9-0.7,12,1.1,17.7c1.8,5.7,5,11,9.3,15.2c4.3,4.2,9.5,7.4,15.3,9.1c5.7,1.7,11.9,2,17.8,0.9c5.9-1.2,11.4-3.8,16.1-7.6
	c4.6-3.8,8.3-8.7,10.7-14.2c0.9-2.1,3.3-3.1,5.4-2.2c2.1,0.9,3.1,3.3,2.2,5.4c-2.9,6.7-7.4,12.8-13,17.4c-5.7,4.6-12.5,7.8-19.7,9.2
	C55.9,94.7,52.9,95,50,95z"/>
<path d="M90.9,54.1H50c-2.3,0-4.1-1.8-4.1-4.1V9.1C45.9,6.8,47.7,5,50,5c5.9,0,11.7,1.2,17.2,3.4c5.5,2.3,10.4,5.6,14.6,9.8
	c4.2,4.2,7.5,9.1,9.8,14.6C93.8,38.3,95,44.1,95,50C95,52.3,93.2,54.1,90.9,54.1z M54.1,45.9h32.5c-0.4-3.4-1.2-6.8-2.6-10
	c-1.9-4.5-4.5-8.5-8-11.9s-7.5-6.1-11.9-8c-3.2-1.3-6.6-2.2-10-2.6V45.9z"/>
</svg>
