<?xml version="1.0" encoding="utf-8"?>
<!-- Generator: Adobe Illustrator 25.0.0, SVG Export Plug-In . SVG Version: 6.00 Build 0)  -->
<svg version="1.1" id="Layer_1" xmlns="http://www.w3.org/2000/svg" xmlns:xlink="http://www.w3.org/1999/xlink" x="0px" y="0px"
	 viewBox="0 0 100 100" style="enable-background:new 0 0 100 100;" xml:space="preserve">
<path d="M94,29.1L70.9,6c-0.6-0.6-1.5-1-2.4-1H17.7c-3.4,0-6.6,1.3-9,3.7S5,14.3,5,17.7v64.6c0,3.4,1.3,6.6,3.7,9s5.6,3.7,9,3.7
	h64.6c3.4,0,6.6-1.3,9-3.7c2.4-2.4,3.7-5.6,3.7-9V31.5C95,30.6,94.6,29.7,94,29.1z M69.6,88.1H30.4v-30h39.2V88.1z M88.1,82.3
	c0,1.5-0.6,3-1.7,4.1s-2.5,1.7-4.1,1.7h-5.8V54.6c0-1.9-1.6-3.5-3.5-3.5H26.9c-1.9,0-3.5,1.6-3.5,3.5v33.5h-5.8
	c-1.5,0-3-0.6-4.1-1.7s-1.7-2.5-1.7-4.1V17.7c0-1.5,0.6-3,1.7-4.1s2.6-1.7,4.1-1.7h5.8v19.6c0,1.9,1.6,3.5,3.5,3.5h36.9
	c1.9,0,3.5-1.6,3.5-3.5S65.7,28,63.8,28H30.4V11.9H67l21,21L88.1,82.3L88.1,82.3z"/>
</svg>
