<?xml version="1.0" encoding="utf-8"?>
<!-- Generator: Adobe Illustrator 25.0.0, SVG Export Plug-In . SVG Version: 6.00 Build 0)  -->
<svg version="1.1" id="Layer_1" xmlns="http://www.w3.org/2000/svg" xmlns:xlink="http://www.w3.org/1999/xlink" x="0px" y="0px"
	 viewBox="0 0 100 100" style="enable-background:new 0 0 100 100;" xml:space="preserve">
<path d="M93.7,87.3L77.1,70.8C82.7,63.8,86,55,86,45.5C86,23.2,67.8,5,45.5,5C23.2,5,5,23.2,5,45.5S23.2,86,45.5,86
	c9.5,0,18.3-3.3,25.2-8.9l16.6,16.6c0.9,0.9,2,1.3,3.2,1.3c1.2,0,2.3-0.4,3.2-1.3C95.4,91.9,95.4,89.1,93.7,87.3z M14,45.5
	C14,28.1,28.1,14,45.5,14C62.9,14,77,28.1,77,45.5c0,8.6-3.5,16.5-9.2,22.2c0,0-0.1,0-0.1,0.1c0,0,0,0.1-0.1,0.1
	C62,73.5,54.1,77,45.5,77C28.1,77,14,62.9,14,45.5z"/>
</svg>
