<?xml version="1.0" encoding="utf-8"?>
<!-- Generator: Adobe Illustrator 25.0.0, SVG Export Plug-In . SVG Version: 6.00 Build 0)  -->
<svg version="1.1" id="Layer_1" xmlns="http://www.w3.org/2000/svg" xmlns:xlink="http://www.w3.org/1999/xlink" x="0px" y="0px"
	 viewBox="0 0 100 100" style="enable-background:new 0 0 100 100;" xml:space="preserve">
<g>
	<path d="M82.7,5H17.3C10.5,5,5,10.5,5,17.3v16.4C5,40.5,10.5,46,17.3,46h65.5c6.8,0,12.3-5.5,12.3-12.3V17.3C95,10.5,89.5,5,82.7,5
		z M86.8,33.6c0,2.3-1.8,4.1-4.1,4.1H17.3c-2.3,0-4.1-1.8-4.1-4.1V17.3c0-2.3,1.8-4.1,4.1-4.1h65.5c2.3,0,4.1,1.8,4.1,4.1L86.8,33.6
		L86.8,33.6z"/>
	<path d="M82.7,54.1H17.3C10.5,54.1,5,59.6,5,66.4v16.4C5,89.5,10.5,95,17.3,95h65.5C89.5,95,95,89.5,95,82.7V66.4
		C95,59.6,89.5,54.1,82.7,54.1z M86.8,82.7c0,2.3-1.8,4.1-4.1,4.1H17.3c-2.3,0-4.1-1.8-4.1-4.1V66.4c0-2.3,1.8-4.1,4.1-4.1h65.5
		c2.3,0,4.1,1.8,4.1,4.1L86.8,82.7L86.8,82.7z"/>
	<path d="M25.5,21.4L25.5,21.4c-2.3,0-4.1,1.8-4.1,4.1s1.9,4.1,4.1,4.1s4.1-1.8,4.1-4.1S27.8,21.4,25.5,21.4z"/>
	<path d="M25.5,70.5L25.5,70.5c-2.3,0-4.1,1.8-4.1,4.1c0,2.3,1.9,4.1,4.1,4.1s4.1-1.8,4.1-4.1S27.8,70.5,25.5,70.5z"/>
</g>
</svg>
