<?xml version="1.0" encoding="utf-8"?>
<!-- Generator: Adobe Illustrator 25.0.0, SVG Export Plug-In . SVG Version: 6.00 Build 0)  -->
<svg version="1.1" id="Layer_1" xmlns="http://www.w3.org/2000/svg" xmlns:xlink="http://www.w3.org/1999/xlink" x="0px" y="0px"
	 viewBox="0 0 100 100" style="enable-background:new 0 0 100 100;" xml:space="preserve">
<circle cx="38.7" cy="85.6" r="7.5"/>
<circle cx="80" cy="85.6" r="7.5"/>
<path d="M41.1,70.6c-2.5,0-5-0.9-7-2.5c-2.1-1.7-3.5-4-4-6.6l-6.3-31.3c0-0.1,0-0.2-0.1-0.3l-3.1-15.6H8.7c-2.1,0-3.7-1.7-3.7-3.7
	s1.7-3.7,3.7-3.7h15c1.8,0,3.3,1.3,3.7,3l3.1,15.7h60.7c1.1,0,2.2,0.5,2.9,1.4c0.7,0.9,1,2,0.8,3.1l-6,31.5c-0.5,2.6-1.9,4.9-4,6.6
	c-2.1,1.7-4.6,2.5-7.3,2.5H41.3C41.2,70.6,41.2,70.6,41.1,70.6z M32.1,33.1l5.4,27c0.2,0.9,0.6,1.6,1.3,2.2c0.7,0.6,1.6,0.9,2.4,0.8
	h36.5c1,0,1.8-0.3,2.5-0.8c0.7-0.6,1.2-1.3,1.3-2.2l5.1-27H32.1z"/>
</svg>
