<?xml version="1.0" encoding="utf-8"?>
<!-- Generator: Adobe Illustrator 25.0.0, SVG Export Plug-In . SVG Version: 6.00 Build 0)  -->
<svg version="1.1" id="Layer_1" xmlns="http://www.w3.org/2000/svg" xmlns:xlink="http://www.w3.org/1999/xlink" x="0px" y="0px"
	 viewBox="0 0 100 100" style="enable-background:new 0 0 100 100;" xml:space="preserve">
<style type="text/css">
	.st0{fill:#010101;}
</style>
<g>
	<path class="st0" d="M38.3,81c-3.3,0-6,2.7-6,6c0,3.3,2.7,6,6,6c3.3,0,6-2.7,6-6C44.3,83.7,41.6,81,38.3,81z M38.3,88.8
		c-1,0-1.8-0.8-1.8-1.8c0-1,0.8-1.8,1.8-1.8s1.8,0.8,1.8,1.8C40.1,88,39.3,88.8,38.3,88.8z"/>
	<path class="st0" d="M81.2,81c-3.3,0-6,2.7-6,6c0,3.3,2.7,6,6,6s6-2.7,6-6C87.2,83.7,84.5,81,81.2,81z M81.2,88.8
		c-1,0-1.8-0.8-1.8-1.8c0-1,0.8-1.8,1.8-1.8S83,86.1,83,87C83,88,82.2,88.8,81.2,88.8z"/>
	<path class="st0" d="M94.5,27.2c-0.4-0.5-1-0.8-1.6-0.8H28.4L24.8,8.7c-0.2-1-1.1-1.7-2.1-1.7H7.1C6,6.9,5,7.9,5,9.1s1,2.1,2.1,2.1
		H21l3.5,17.7c0,0.1,0,0.2,0,0.2l6.5,32.6c0.5,2.3,1.7,4.3,3.5,5.8c1.8,1.4,4,2.2,6.2,2.2c0.1,0,0.1,0,0.2,0h37.8
		c2.3,0,4.6-0.7,6.4-2.2c1.8-1.5,3.1-3.5,3.5-5.8L95,29C95.1,28.3,94.9,27.7,94.5,27.2z M84.6,60.9c-0.3,1.3-1,2.5-2,3.3
		c-1,0.8-2.4,1.2-3.7,1.3H40.9c-1.3,0.1-2.6-0.4-3.7-1.2c-1-0.8-1.7-2-2-3.3l-6-30.2h61.1L84.6,60.9z"/>
	<path class="st0" d="M61.7,19c1.2,0,2.1-1,2.1-2.1V9.1c0-1.2-1-2.1-2.1-2.1c-1.2,0-2.1,1-2.1,2.1v7.8C59.6,18,60.5,19,61.7,19z"/>
	<path class="st0" d="M72.4,18.8c0.3,0.2,0.6,0.2,0.9,0.2c0.8,0,1.5-0.4,1.9-1.2l3.9-7.8c0.5-1.1,0.1-2.3-1-2.9
		c-1.1-0.5-2.3-0.1-2.9,1l-3.9,7.8C71,17,71.4,18.2,72.4,18.8z"/>
	<path class="st0" d="M48.1,17.8c0.4,0.7,1.1,1.2,1.9,1.2c0.3,0,0.6-0.1,0.9-0.2c1-0.5,1.5-1.8,1-2.9L48,8.1c-0.5-1-1.8-1.5-2.9-1
		c-1,0.5-1.5,1.8-1,2.9L48.1,17.8z"/>
</g>
</svg>
