<?xml version="1.0" encoding="utf-8"?>
<!-- Generator: Adobe Illustrator 25.0.0, SVG Export Plug-In . SVG Version: 6.00 Build 0)  -->
<svg version="1.1" id="Layer_1" xmlns="http://www.w3.org/2000/svg" xmlns:xlink="http://www.w3.org/1999/xlink" x="0px" y="0px"
	 viewBox="0 0 100 100" style="enable-background:new 0 0 100 100;" xml:space="preserve">
<g>
	<path d="M90.6,24c-0.1-0.2-0.2-0.3-0.2-0.4c-0.1-0.2-0.2-0.4-0.3-0.6L77.8,6.6c-0.8-1-2-1.6-3.3-1.6H25.5c-1.3,0-2.5,0.6-3.3,1.6
		L9.9,23c-0.1,0.2-0.2,0.4-0.3,0.6c-0.1,0.1-0.2,0.3-0.2,0.4c-0.2,0.5-0.3,0.9-0.3,1.5v57.3c0,3.3,1.3,6.4,3.6,8.7
		c2.3,2.3,5.4,3.6,8.7,3.6h57.3c3.3,0,6.4-1.3,8.7-3.6c2.3-2.3,3.6-5.4,3.6-8.7V25.5C90.9,25,90.8,24.5,90.6,24z M27.5,13.2h45
		l6.1,8.2H21.4L27.5,13.2z M81.5,85.6c-0.8,0.8-1.8,1.2-2.9,1.2H21.4c-1.1,0-2.1-0.4-2.9-1.2c-0.8-0.8-1.2-1.8-1.2-2.9V29.5h65.5
		v53.2C82.7,83.8,82.3,84.8,81.5,85.6z"/>
	<path d="M66.4,37.7c-2.3,0-4.1,1.8-4.1,4.1c0,3.3-1.3,6.4-3.6,8.7c-4.6,4.6-12.7,4.6-17.4,0c-2.3-2.3-3.6-5.4-3.6-8.7
		c0-2.3-1.8-4.1-4.1-4.1s-4.1,1.8-4.1,4.1c0,5.5,2.1,10.6,6,14.5c3.9,3.9,9,6,14.5,6c5.5,0,10.6-2.1,14.5-6s6-9,6-14.5
		C70.5,39.6,68.6,37.7,66.4,37.7z"/>
</g>
</svg>
