<?xml version="1.0" encoding="utf-8"?>
<!-- Generator: Adobe Illustrator 25.0.0, SVG Export Plug-In . SVG Version: 6.00 Build 0)  -->
<svg version="1.1" id="Layer_1" xmlns="http://www.w3.org/2000/svg" xmlns:xlink="http://www.w3.org/1999/xlink" x="0px" y="0px"
	 viewBox="0 0 100 100" style="enable-background:new 0 0 100 100;" xml:space="preserve">
<path d="M87.7,21.7h-8.4h-9.4v-5.2c0-3.1-1.2-6-3.4-8.1C64.3,6.2,61.4,5,58.4,5H41.6c-3.1,0-6,1.2-8.1,3.4c-2.2,2.2-3.4,5.1-3.4,8.1
	v5.2h-9.4h-8.4c-1.7,0-3.1,1.4-3.1,3.1c0,1.7,1.4,3.1,3.1,3.1h5.2v55.5c0,3.1,1.2,6,3.4,8.1c2.2,2.2,5.1,3.4,8.1,3.4h41.9
	c3.1,0,6-1.2,8.1-3.4c2.2-2.2,3.4-5.1,3.4-8.1V28h5.2c1.7,0,3.1-1.4,3.1-3.1C90.8,23.2,89.4,21.7,87.7,21.7z M36.4,16.5
	c0-1.4,0.5-2.7,1.5-3.7c1-1,2.3-1.5,3.7-1.5h16.7c1.4,0,2.7,0.5,3.7,1.5c1,1,1.5,2.3,1.5,3.7v5.2H36.4V16.5z M76.2,83.5
	c0,1.4-0.5,2.7-1.5,3.7c-1,1-2.3,1.5-3.7,1.5H29.1c-1.4,0-2.7-0.6-3.7-1.5c-1-1-1.5-2.3-1.5-3.7V28h52.3V83.5z"/>
</svg>
