<?xml version="1.0" encoding="utf-8"?>
<!-- Generator: Adobe Illustrator 25.0.0, SVG Export Plug-In . SVG Version: 6.00 Build 0)  -->
<svg version="1.1" id="Layer_1" xmlns="http://www.w3.org/2000/svg" xmlns:xlink="http://www.w3.org/1999/xlink" x="0px" y="0px"
	 viewBox="0 0 100 100" style="enable-background:new 0 0 100 100;" xml:space="preserve">
<path d="M94.2,44.1L82.7,32.7c-0.5-0.5-1.3-0.8-2-0.8H68.2V15.5c0-1.6-1.3-2.9-2.9-2.9H7.9c-1.6,0-2.9,1.3-2.9,2.9v49.8
	c0,1.6,1.3,2.9,2.9,2.9h6.8c-1.2,1.9-2,4.2-2,6.7c0,6.9,5.6,12.4,12.4,12.4s12.4-5.6,12.4-12.4c0-2.5-0.7-4.8-2-6.7h28.9
	c-1.2,1.9-2,4.2-2,6.7c0,6.9,5.6,12.4,12.4,12.4c6.9,0,12.4-5.6,12.4-12.4c0-2.5-0.7-4.8-2-6.7H92c1.6,0,2.9-1.3,2.9-2.9V46.2
	C95,45.4,94.7,44.7,94.2,44.1z M10.7,18.4h51.7v16.3v27.8H10.7V18.4z M31.8,74.9c0,3.7-3,6.7-6.7,6.7s-6.7-3-6.7-6.7s3-6.7,6.7-6.7
	S31.8,71.2,31.8,74.9z M81.6,74.9c0,3.7-3,6.7-6.7,6.7s-6.7-3-6.7-6.7s3-6.7,6.7-6.7S81.6,71.2,81.6,74.9z M89.3,62.4H68.2V37.6
	h11.3l9.8,9.8V62.4z"/>
</svg>
