<?xml version="1.0" encoding="utf-8"?>
<!-- Generator: Adobe Illustrator 25.0.0, SVG Export Plug-In . SVG Version: 6.00 Build 0)  -->
<svg version="1.1" id="Layer_1" xmlns="http://www.w3.org/2000/svg" xmlns:xlink="http://www.w3.org/1999/xlink" x="0px" y="0px"
	 viewBox="0 0 100 100" style="enable-background:new 0 0 100 100;" xml:space="preserve">
<style type="text/css">
	.st0{fill:#010101;}
</style>
<path class="st0" d="M86,95c-2.5,0-4.5-2-4.5-4.5v-9c0-3.6-1.4-7-4-9.5s-5.9-4-9.5-4H32c-3.6,0-7,1.4-9.5,4s-4,5.9-4,9.5v9
	c0,2.5-2,4.5-4.5,4.5s-4.5-2-4.5-4.5v-9c0-6,2.3-11.7,6.6-15.9S26,59,32,59h36c6,0,11.7,2.3,15.9,6.6c4.2,4.2,6.6,9.9,6.6,15.9v9
	C90.5,93,88.5,95,86,95z"/>
<path class="st0" d="M50,50c-12.4,0-22.5-10.1-22.5-22.5S37.6,5,50,5c12.4,0,22.5,10.1,22.5,22.5S62.4,50,50,50z M50,14
	c-7.4,0-13.5,6.1-13.5,13.5S42.6,41,50,41c7.4,0,13.5-6.1,13.5-13.5S57.4,14,50,14z"/>
</svg>
