<?xml version="1.0" standalone="no"?>
<!DOCTYPE svg PUBLIC "-//W3C//DTD SVG 1.1//EN" "http://www.w3.org/Graphics/SVG/1.1/DTD/svg11.dtd" >
<svg xmlns="http://www.w3.org/2000/svg">
<metadata>Generated by IcoMoon</metadata>
<defs>
<font id="font-icons" horiz-adv-x="1024">
<font-face units-per-em="1024" ascent="960" descent="-64" />
<missing-glyph horiz-adv-x="1024" />
<glyph unicode="&#x20;" horiz-adv-x="512" d="" />
<glyph unicode="&#xe900;" glyph-name="dollar-sign" d="M730.112 435.712c-32.768 32.768-75.776 50.176-121.856 50.176h-57.344v192.512h153.6c21.504 0 37.888 17.408 37.888 37.888s-17.408 38.912-38.912 38.912h-153.6v115.712c1.024 20.48-16.384 37.888-37.888 37.888s-37.888-17.408-37.888-37.888v-115.712h-57.344c-46.080 0-89.088-18.432-121.856-50.176-32.768-32.768-50.176-75.776-50.176-121.856s18.432-89.088 50.176-121.856c32.768-32.768 75.776-50.176 121.856-50.176h57.344v-192.512h-192.512c-21.504 0-37.888-17.408-37.888-37.888s17.408-37.888 37.888-37.888h191.488v-114.688c0-21.504 17.408-37.888 37.888-37.888s37.888 17.408 37.888 37.888v112.64h57.344c46.080 0 89.088 18.432 121.856 50.176 32.768 32.768 50.176 75.776 50.176 121.856 2.048 47.104-15.36 90.112-48.128 122.88zM415.744 486.912c-25.6 0-50.176 10.24-67.584 27.648-18.432 18.432-27.648 41.984-27.648 67.584s10.24 50.176 27.648 67.584c18.432 18.432 41.984 27.648 67.584 27.648h57.344v-191.488h-57.344zM675.84 245.248c-17.408-17.408-43.008-27.648-67.584-27.648h-57.344v192.512h57.344c25.6 0 50.176-10.24 67.584-27.648s27.648-43.008 27.648-67.584c0-26.624-9.216-51.2-27.648-69.632z" />
<glyph unicode="&#xe901;" glyph-name="server" d="M846.848 908.8h-669.696c-69.632 0-125.952-56.32-125.952-125.952v-167.936c0-69.632 56.32-125.952 125.952-125.952h670.72c69.632 0 125.952 56.32 125.952 125.952v167.936c-1.024 69.632-57.344 125.952-126.976 125.952zM888.832 615.936c0-23.552-18.432-41.984-41.984-41.984h-669.696c-23.552 0-41.984 18.432-41.984 41.984v166.912c0 23.552 18.432 41.984 41.984 41.984h670.72c23.552 0 41.984-18.432 41.984-41.984l-1.024-166.912zM846.848 406.016h-669.696c-69.632 0-125.952-56.32-125.952-125.952v-167.936c0-68.608 56.32-124.928 125.952-124.928h670.72c68.608 0 124.928 56.32 124.928 125.952v166.912c0 69.632-56.32 125.952-125.952 125.952zM888.832 113.152c0-23.552-18.432-41.984-41.984-41.984h-669.696c-23.552 0-41.984 18.432-41.984 41.984v166.912c0 23.552 18.432 41.984 41.984 41.984h670.72c23.552 0 41.984-18.432 41.984-41.984l-1.024-166.912zM261.12 740.864v0c-23.552 0-41.984-18.432-41.984-41.984s19.456-41.984 41.984-41.984 41.984 18.432 41.984 41.984-18.432 41.984-41.984 41.984zM261.12 238.080v0c-23.552 0-41.984-18.432-41.984-41.984s19.456-41.984 41.984-41.984 41.984 18.432 41.984 41.984-18.432 41.984-41.984 41.984z" />
<glyph unicode="&#xe902;" glyph-name="save" d="M962.56 662.016l-236.544 236.544c-6.144 6.144-15.36 10.24-24.576 10.24h-520.192c-34.816 0-67.584-13.312-92.16-37.888s-37.888-57.344-37.888-92.16v-661.504c0-34.816 13.312-67.584 37.888-92.16s57.344-37.888 92.16-37.888h661.504c34.816 0 67.584 13.312 92.16 37.888s37.888 57.344 37.888 92.16v520.192c0 9.216-4.096 18.432-10.24 24.576zM712.704 57.856h-401.408v307.2h401.408v-307.2zM902.144 117.248c0-15.36-6.144-30.72-17.408-41.984s-25.6-17.408-41.984-17.408h-59.392v343.040c0 19.456-16.384 35.84-35.84 35.84h-472.064c-19.456 0-35.84-16.384-35.84-35.84v-343.040h-59.392c-15.36 0-30.72 6.144-41.984 17.408s-17.408 25.6-17.408 41.984v661.504c0 15.36 6.144 30.72 17.408 41.984s26.624 17.408 41.984 17.408h59.392v-200.704c0-19.456 16.384-35.84 35.84-35.84h377.856c19.456 0 35.84 16.384 35.84 35.84s-16.384 35.84-35.84 35.84h-342.016v164.864h374.784l215.040-215.040 1.024-505.856z" />
<glyph unicode="&#xe903;" glyph-name="truck" d="M964.608 508.416l-117.76 116.736c-5.12 5.12-13.312 8.192-20.48 8.192h-128v167.936c0 16.384-13.312 29.696-29.696 29.696h-587.776c-16.384 0-29.696-13.312-29.696-29.696v-509.952c0-16.384 13.312-29.696 29.696-29.696h69.632c-12.288-19.456-20.48-43.008-20.48-68.608 0-70.656 57.344-126.976 126.976-126.976s126.976 57.344 126.976 126.976c0 25.6-7.168 49.152-20.48 68.608h295.936c-12.288-19.456-20.48-43.008-20.48-68.608 0-70.656 57.344-126.976 126.976-126.976 70.656 0 126.976 57.344 126.976 126.976 0 25.6-7.168 49.152-20.48 68.608h69.632c16.384 0 29.696 13.312 29.696 29.696v195.584c1.024 8.192-2.048 15.36-7.168 21.504zM109.568 771.584h529.408v-451.584h-529.408v451.584zM325.632 193.024c0-37.888-30.72-68.608-68.608-68.608s-68.608 30.72-68.608 68.608 30.72 68.608 68.608 68.608 68.608-30.72 68.608-68.608zM835.584 193.024c0-37.888-30.72-68.608-68.608-68.608s-68.608 30.72-68.608 68.608 30.72 68.608 68.608 68.608 68.608-30.72 68.608-68.608zM914.432 321.024h-216.064v253.952h115.712l100.352-100.352v-153.6z" />
<glyph unicode="&#xe904;" glyph-name="arrow-right" d="M771.072 448c0-15.36-6.144-29.696-16.384-40.96l-403.456-403.456c-22.528-22.528-59.392-22.528-81.92 0s-22.528 59.392 0 81.92l362.496 362.496-362.496 362.496c-22.528 22.528-22.528 59.392 0 81.92s59.392 22.528 81.92 0l403.456-403.456c10.24-11.264 16.384-25.6 16.384-40.96z" />
<glyph unicode="&#xe905;" glyph-name="arrow-left" d="M252.928 448c0-15.36 6.144-29.696 16.384-40.96l403.456-403.456c22.528-22.528 59.392-22.528 81.92 0s22.528 59.392 0 81.92l-362.496 362.496 362.496 362.496c22.528 22.528 22.528 59.392 0 81.92s-59.392 22.528-81.92 0l-403.456-403.456c-10.24-11.264-16.384-25.6-16.384-40.96z" />
<glyph unicode="&#xe906;" glyph-name="arrow-up" d="M512 707.072c-15.36 0-29.696-6.144-40.96-16.384l-403.456-403.456c-22.528-22.528-22.528-59.392 0-81.92s59.392-22.528 81.92 0l362.496 362.496 362.496-362.496c22.528-22.528 59.392-22.528 81.92 0s22.528 59.392 0 81.92l-403.456 403.456c-11.264 10.24-25.6 16.384-40.96 16.384z" />
<glyph unicode="&#xe907;" glyph-name="arrow-down" d="M512 188.928c-15.36 0-29.696 6.144-40.96 16.384l-403.456 403.456c-22.528 22.528-22.528 59.392 0 81.92s59.392 22.528 81.92 0l362.496-362.496 362.496 362.496c22.528 22.528 59.392 22.528 81.92 0s22.528-59.392 0-81.92l-403.456-403.456c-11.264-10.24-25.6-16.384-40.96-16.384z" />
<glyph unicode="&#xe908;" glyph-name="book-open" d="M930.816 866.816h-250.88c-56.32 0-108.544-21.504-148.48-61.44-7.168-7.168-13.312-15.36-19.456-23.552-6.144 8.192-12.288 16.384-19.456 23.552-39.936 39.936-92.16 61.44-148.48 61.44h-250.88c-23.552 0-41.984-18.432-41.984-41.984v-628.736c0-23.552 18.432-41.984 41.984-41.984h292.864c22.528 0 43.008-9.216 59.392-24.576 15.36-15.36 24.576-36.864 24.576-59.392 0-23.552 18.432-41.984 41.984-41.984s41.984 18.432 41.984 41.984c0 22.528 9.216 44.032 24.576 59.392s36.864 24.576 59.392 24.576h292.864c23.552 0 41.984 18.432 41.984 41.984v628.736c0 23.552-18.432 41.984-41.984 41.984zM470.016 216.576c-25.6 14.336-54.272 22.528-83.968 22.528h-250.88v543.744h209.92c32.768 0 65.536-13.312 89.088-36.864s36.864-55.296 36.864-89.088v-440.32zM888.832 238.080h-250.88c-29.696 0-58.368-8.192-83.968-22.528v442.368c0 33.792 13.312 65.536 36.864 89.088s55.296 36.864 89.088 36.864h209.92v-545.792z" />
<glyph unicode="&#xe909;" glyph-name="calendar" d="M804.864 824.832h-83.968v41.984c0 23.552-18.432 41.984-41.984 41.984s-41.984-18.432-41.984-41.984v-41.984h-250.88v41.984c0 23.552-18.432 41.984-41.984 41.984s-41.984-18.432-41.984-41.984v-41.984h-83.968c-69.632 0-125.952-56.32-125.952-125.952v-586.752c0-69.632 56.32-125.952 125.952-125.952h586.752c69.632 0 125.952 56.32 125.952 125.952v586.752c0 69.632-56.32 125.952-125.952 125.952zM219.136 740.864h83.968v-41.984c0-23.552 18.432-41.984 41.984-41.984s41.984 18.432 41.984 41.984v41.984h250.88v-41.984c0-23.552 18.432-41.984 41.984-41.984s41.984 18.432 41.984 41.984v41.984h83.968c23.552 0 41.984-18.432 41.984-41.984v-125.952h-670.72v125.952c0 23.552 18.432 41.984 41.984 41.984zM804.864 71.168h-585.728c-23.552 0-41.984 18.432-41.984 41.984v376.832h670.72v-376.832c-1.024-23.552-19.456-41.984-43.008-41.984z" />
<glyph unicode="&#xe90a;" glyph-name="check" d="M366.592 108.032c-19.456 0-37.888 7.168-51.2 21.504l-242.688 242.688c-28.672 28.672-28.672 74.752 0 102.4 28.672 28.672 74.752 28.672 102.4 0l191.488-190.464 482.304 482.304c28.672 28.672 74.752 28.672 102.4 0s28.672-74.752 0-102.4l-533.504-534.528c-13.312-13.312-31.744-21.504-51.2-21.504z" />
<glyph unicode="&#xe90b;" glyph-name="file-text" d="M885.76 631.296c-2.048 5.12-5.12 9.216-9.216 13.312l-250.88 251.904c-4.096 4.096-8.192 7.168-13.312 9.216s-10.24 3.072-16.384 3.072h-334.848c-33.792 0-65.536-13.312-89.088-36.864s-36.864-55.296-36.864-89.088v-670.72c0-33.792 13.312-65.536 36.864-89.088s55.296-36.864 89.088-36.864h502.784c33.792 0 65.536 13.312 89.088 36.864s36.864 55.296 36.864 89.088v503.808c-1.024 5.12-2.048 10.24-4.096 15.36zM637.952 765.44l108.544-108.544h-108.544v108.544zM792.576 83.456c-8.192-8.192-18.432-12.288-29.696-12.288h-501.76c-11.264 0-21.504 4.096-29.696 12.288s-12.288 18.432-12.288 29.696v669.696c0 11.264 4.096 21.504 12.288 29.696s18.432 12.288 29.696 12.288h292.864v-209.92c0-23.552 18.432-41.984 41.984-41.984h209.92v-460.8c-1.024-10.24-5.12-20.48-13.312-28.672zM679.936 448h-335.872c-23.552 0-41.984-18.432-41.984-41.984s18.432-41.984 41.984-41.984h334.848c23.552 0 41.984 18.432 41.984 41.984 1.024 23.552-18.432 41.984-40.96 41.984zM679.936 280.064h-335.872c-23.552 0-41.984-18.432-41.984-41.984s18.432-41.984 41.984-41.984h334.848c23.552 0 41.984 18.432 41.984 41.984 1.024 23.552-18.432 41.984-40.96 41.984zM344.064 531.968h83.968c23.552 0 41.984 18.432 41.984 41.984s-18.432 41.984-41.984 41.984h-83.968c-23.552 0-41.984-18.432-41.984-41.984s19.456-41.984 41.984-41.984z" />
<glyph unicode="&#xe90c;" glyph-name="filters" d="M204.8 486.912c21.504 0 38.912 17.408 38.912 38.912v268.288c0 21.504-17.408 38.912-38.912 38.912s-38.912-17.408-38.912-38.912v-269.312c1.024-21.504 17.408-37.888 38.912-37.888zM512 486.912c-21.504 0-38.912-17.408-38.912-38.912v-346.112c0-21.504 17.408-38.912 38.912-38.912s38.912 17.408 38.912 38.912v346.112c0 21.504-17.408 38.912-38.912 38.912zM819.2 409.088c21.504 0 38.912 17.408 38.912 38.912v346.112c0 21.504-17.408 38.912-38.912 38.912s-38.912-17.408-38.912-38.912v-346.112c0-21.504 17.408-38.912 38.912-38.912zM320.512 409.088h-230.4c-21.504 0-38.912-17.408-38.912-38.912s17.408-38.912 38.912-38.912h76.8v-230.4c0-21.504 17.408-38.912 38.912-38.912s38.912 17.408 38.912 38.912v231.424h76.8c21.504 0 38.912 17.408 38.912 38.912s-19.456 37.888-39.936 37.888zM626.688 640.512h-76.8v153.6c0 21.504-17.408 38.912-38.912 38.912s-38.912-17.408-38.912-38.912v-153.6h-76.8c-21.504 0-38.912-17.408-38.912-38.912s17.408-38.912 38.912-38.912h230.4c21.504 0 38.912 17.408 38.912 38.912s-16.384 38.912-37.888 38.912zM933.888 332.288h-230.4c-21.504 0-38.912-17.408-38.912-38.912s17.408-38.912 38.912-38.912h76.8v-153.6c0-21.504 17.408-38.912 38.912-38.912s38.912 17.408 38.912 38.912v153.6h76.8c21.504 0 38.912 17.408 38.912 38.912-1.024 22.528-18.432 38.912-39.936 38.912z" />
<glyph unicode="&#xe90d;" glyph-name="flag" d="M864.256 862.72c-15.36 7.168-32.768 4.096-45.056-7.168 0 0-36.864-30.72-139.264-30.72-54.272 0-102.4 18.432-151.552 38.912-56.32 22.528-112.64 45.056-184.32 45.056-136.192 0-188.416-45.056-197.632-54.272-8.192-8.192-12.288-18.432-12.288-29.696v-795.648c0-23.552 18.432-41.984 41.984-41.984s41.984 18.432 41.984 41.984v270.336c18.432 9.216 56.32 22.528 125.952 22.528 54.272 0 102.4-18.432 151.552-38.912 55.296-22.528 112.64-45.056 183.296-45.056 136.192 0 188.416 45.056 197.632 54.272 8.192 8.192 12.288 18.432 12.288 29.696v502.784c0 16.384-10.24 30.72-24.576 37.888zM804.864 344.576c-18.432-9.216-57.344-22.528-125.952-22.528-54.272 0-102.4 18.432-151.552 38.912-55.296 22.528-112.64 45.056-183.296 45.056-54.272 0-95.232-7.168-125.952-16.384v412.672c18.432 9.216 57.344 22.528 125.952 22.528 54.272 0 102.4-18.432 151.552-38.912 55.296-22.528 112.64-45.056 183.296-45.056 54.272 0 95.232 7.168 125.952 16.384v-412.672z" />
<glyph unicode="&#xe90e;" glyph-name="globe" d="M512 908.8c-253.952 0-460.8-206.848-460.8-460.8s206.848-460.8 460.8-460.8c253.952 0 460.8 206.848 460.8 460.8s-206.848 460.8-460.8 460.8zM886.784 489.984h-167.936c-9.216 115.712-48.128 226.304-111.616 322.56 148.48-38.912 262.144-165.888 279.552-322.56zM389.12 406.016h245.76c-10.24-113.664-53.248-222.208-122.88-312.32-70.656 91.136-112.64 199.68-122.88 312.32zM389.12 489.984c10.24 113.664 53.248 222.208 122.88 312.32 70.656-90.112 112.64-198.656 122.88-312.32h-245.76zM416.768 812.544c-63.488-96.256-102.4-205.824-111.616-322.56h-167.936c17.408 156.672 131.072 283.648 279.552 322.56zM137.216 406.016h167.936c9.216-115.712 48.128-226.304 111.616-322.56-148.48 38.912-262.144 165.888-279.552 322.56zM607.232 83.456c63.488 96.256 102.4 205.824 111.616 322.56h167.936c-17.408-156.672-131.072-283.648-279.552-322.56z" />
<glyph unicode="&#xe90f;" glyph-name="home" d="M914.432 606.72l-376.832 292.864c-15.36 11.264-35.84 11.264-51.2 0l-376.832-292.864c-10.24-8.192-16.384-20.48-16.384-32.768v-460.8c0-33.792 13.312-65.536 36.864-89.088s55.296-36.864 89.088-36.864h586.752c33.792 0 65.536 13.312 89.088 36.864s36.864 55.296 36.864 89.088v460.8c-1.024 12.288-7.168 24.576-17.408 32.768zM595.968 71.168h-167.936v334.848h167.936v-334.848zM846.848 113.152c0-11.264-4.096-21.504-12.288-29.696s-18.432-12.288-29.696-12.288h-124.928v376.832c0 23.552-18.432 41.984-41.984 41.984h-251.904c-23.552 0-41.984-18.432-41.984-41.984v-376.832h-124.928c-11.264 0-21.504 4.096-29.696 12.288s-12.288 18.432-12.288 29.696v440.32l334.848 260.096 334.848-261.12v-439.296z" />
<glyph unicode="&#xe910;" glyph-name="mail" d="M846.848 824.832h-669.696c-69.632 0-125.952-56.32-125.952-125.952v-502.784c0-69.632 56.32-125.952 125.952-125.952h670.72c69.632 0 125.952 56.32 125.952 125.952v502.784c-1.024 69.632-57.344 125.952-126.976 125.952zM177.152 740.864h670.72c16.384 0 30.72-9.216 36.864-23.552l-372.736-260.096-372.736 261.12c7.168 13.312 21.504 22.528 37.888 22.528zM846.848 155.136h-669.696c-23.552 0-41.984 18.432-41.984 41.984v421.888l353.28-246.784c7.168-5.12 15.36-7.168 23.552-7.168s16.384 2.048 23.552 7.168l353.28 246.784v-421.888c0-23.552-18.432-41.984-41.984-41.984z" />
<glyph unicode="&#xe911;" glyph-name="map-pin" d="M888.832 531.968c0-293.888-376.832-544.768-376.832-544.768s-376.832 250.88-376.832 544.768c0 100.352 39.936 195.584 110.592 266.24s165.888 110.592 266.24 110.592c100.352 0 195.584-39.936 266.24-110.592s110.592-166.912 110.592-266.24z" />
<glyph unicode="&#xe912;" glyph-name="maximize" d="M825.344-12.8h-134.144c-31.744 0-57.344 25.6-57.344 57.344s25.6 57.344 57.344 57.344h134.144c8.192 0 16.384 3.072 22.528 9.216s9.216 14.336 9.216 22.528v135.168c0 31.744 25.6 57.344 57.344 57.344s57.344-25.6 57.344-57.344v-134.144c0-38.912-15.36-76.8-43.008-104.448-26.624-27.648-63.488-43.008-103.424-43.008zM332.8-12.8h-134.144c-38.912 0-75.776 15.36-104.448 43.008-27.648 27.648-43.008 64.512-43.008 104.448v134.144c0 31.744 25.6 57.344 57.344 57.344s57.344-25.6 57.344-57.344v-134.144c0-8.192 3.072-16.384 9.216-22.528s14.336-9.216 22.528-9.216h134.144c31.744 0 57.344-25.6 57.344-57.344s-24.576-58.368-56.32-58.368zM915.456 569.856c-31.744 0-57.344 25.6-57.344 57.344v134.144c0 8.192-3.072 16.384-9.216 22.528s-14.336 9.216-22.528 9.216h-135.168c-31.744 0-57.344 25.6-57.344 57.344s25.6 58.368 57.344 58.368h134.144c38.912 0 75.776-15.36 104.448-43.008 27.648-27.648 43.008-64.512 43.008-104.448v-134.144c0-31.744-25.6-57.344-57.344-57.344zM108.544 569.856c-31.744 0-57.344 25.6-57.344 57.344v134.144c0 38.912 15.36 76.8 43.008 104.448s64.512 43.008 104.448 43.008h134.144c31.744 0 57.344-25.6 57.344-57.344s-25.6-57.344-57.344-57.344h-134.144c-8.192 0-16.384-3.072-22.528-9.216s-9.216-14.336-9.216-22.528v-134.144c0-32.768-26.624-58.368-58.368-58.368zM507.904 145.92c-31.744 0-57.344 25.6-57.344 57.344v448.512c0 31.744 25.6 57.344 57.344 57.344s57.344-25.6 57.344-57.344v-447.488c1.024-31.744-25.6-58.368-57.344-58.368zM687.104 145.92c-31.744 0-57.344 25.6-57.344 57.344v448.512c0 31.744 25.6 57.344 57.344 57.344s57.344-25.6 57.344-57.344v-447.488c0-31.744-25.6-58.368-57.344-58.368zM328.704 145.92c-31.744 0-57.344 25.6-57.344 57.344v448.512c0 31.744 25.6 57.344 57.344 57.344s57.344-25.6 57.344-57.344v-447.488c0-31.744-25.6-58.368-57.344-58.368z" />
<glyph unicode="&#xe913;" glyph-name="check-square" d="M870.4 908.8h-716.8c-56.32 0-102.4-46.080-102.4-102.4v-716.8c0-56.32 46.080-102.4 102.4-102.4h716.8c56.32 0 102.4 46.080 102.4 102.4v716.8c0 56.32-46.080 102.4-102.4 102.4zM821.248 616.96l-375.808-375.808c-9.216-9.216-22.528-15.36-35.84-15.36s-26.624 5.12-35.84 15.36l-171.008 171.008c-20.48 20.48-20.48 52.224 0 72.704s52.224 20.48 72.704 0l134.144-135.168 338.944 338.944c20.48 20.48 52.224 20.48 72.704 0s20.48-52.224 0-71.68z" />
<glyph unicode="&#xe914;" glyph-name="minus" d="M915.456 390.656h-806.912c-31.744 0-57.344 25.6-57.344 57.344s25.6 57.344 57.344 57.344h805.888c31.744 0 57.344-25.6 57.344-57.344s-24.576-57.344-56.32-57.344z" />
<glyph unicode="&#xe915;" glyph-name="pie-chart" d="M512-12.8c-45.056 0-90.112 6.144-133.12 19.456-71.68 21.504-137.216 61.44-190.464 113.664s-93.184 118.784-115.712 190.464-27.648 147.456-13.312 222.208c13.312 73.728 46.080 143.36 92.16 202.752 46.080 57.344 107.52 104.448 176.128 135.168 21.504 9.216 46.080 0 55.296-21.504s0-46.080-21.504-55.296c-56.32-24.576-106.496-62.464-144.384-110.592s-64.512-105.472-75.776-165.888c-11.264-60.416-7.168-122.88 11.264-181.248s51.2-112.64 95.232-155.648c44.032-43.008 97.28-75.776 156.672-93.184 58.368-17.408 121.856-20.48 182.272-9.216 60.416 12.288 116.736 38.912 164.864 77.824 47.104 38.912 84.992 89.088 109.568 145.408 9.216 21.504 33.792 31.744 55.296 22.528s31.744-33.792 22.528-55.296c-29.696-68.608-75.776-131.072-133.12-178.176-58.368-47.104-128-79.872-201.728-94.208-31.744-6.144-62.464-9.216-92.16-9.216zM930.816 406.016h-418.816c-23.552 0-41.984 18.432-41.984 41.984v418.816c0 23.552 18.432 41.984 41.984 41.984 60.416 0 119.808-12.288 176.128-34.816 56.32-23.552 106.496-57.344 149.504-100.352s76.8-93.184 100.352-149.504c22.528-56.32 34.816-115.712 34.816-176.128 0-23.552-18.432-41.984-41.984-41.984zM553.984 489.984h332.8c-4.096 34.816-12.288 69.632-26.624 102.4-19.456 46.080-46.080 87.040-81.92 121.856s-76.8 62.464-121.856 81.92c-32.768 13.312-67.584 22.528-102.4 26.624v-332.8z" />
<glyph unicode="&#xe916;" glyph-name="plus" d="M915.456 505.344h-346.112v346.112c0 31.744-25.6 57.344-57.344 57.344s-57.344-25.6-57.344-57.344v-345.088h-346.112c-31.744-1.024-57.344-26.624-57.344-58.368s25.6-57.344 57.344-57.344h345.088v-345.088c0-31.744 25.6-57.344 57.344-57.344s57.344 25.6 57.344 57.344v345.088h345.088c31.744 0 57.344 25.6 57.344 57.344s-23.552 57.344-55.296 57.344z" />
<glyph unicode="&#xe917;" glyph-name="search" d="M959.488 66.048l-169.984 168.96c57.344 71.68 91.136 161.792 91.136 259.072 0 228.352-186.368 414.72-414.72 414.72s-414.72-186.368-414.72-414.72 186.368-414.72 414.72-414.72c97.28 0 187.392 33.792 258.048 91.136l169.984-169.984c9.216-9.216 20.48-13.312 32.768-13.312s23.552 4.096 32.768 13.312c17.408 18.432 17.408 47.104 0 65.536zM143.36 494.080c0 178.176 144.384 322.56 322.56 322.56s322.56-144.384 322.56-322.56c0-88.064-35.84-168.96-94.208-227.328 0 0-1.024 0-1.024-1.024 0 0 0-1.024-1.024-1.024-57.344-57.344-138.24-93.184-226.304-93.184-178.176 0-322.56 144.384-322.56 322.56z" />
<glyph unicode="&#xe918;" glyph-name="shopping-cart" d="M392.192 130.56c-33.792 0-61.44-27.648-61.44-61.44s27.648-61.44 61.44-61.44c33.792 0 61.44 27.648 61.44 61.44s-27.648 61.44-61.44 61.44zM392.192 50.688c-10.24 0-18.432 8.192-18.432 18.432s8.192 18.432 18.432 18.432 18.432-8.192 18.432-18.432c0-10.24-8.192-18.432-18.432-18.432zM831.488 130.56c-33.792 0-61.44-27.648-61.44-61.44s27.648-61.44 61.44-61.44 61.44 27.648 61.44 61.44c0 33.792-27.648 61.44-61.44 61.44zM831.488 50.688c-10.24 0-18.432 8.192-18.432 18.432s8.192 18.432 18.432 18.432 18.432-9.216 18.432-18.432c0-10.24-8.192-18.432-18.432-18.432zM967.68 681.472c-4.096 5.12-10.24 8.192-16.384 8.192h-660.48l-36.864 181.248c-2.048 10.24-11.264 17.408-21.504 17.408h-159.744c-11.264 1.024-21.504-9.216-21.504-21.504s10.24-21.504 21.504-21.504h142.336l35.84-181.248c0-1.024 0-2.048 0-2.048l66.56-333.824c5.12-23.552 17.408-44.032 35.84-59.392 18.432-14.336 40.96-22.528 63.488-22.528 1.024 0 1.024 0 2.048 0h387.072c23.552 0 47.104 7.168 65.536 22.528s31.744 35.84 35.84 59.392l65.536 334.848c1.024 7.168-1.024 13.312-5.12 18.432zM866.304 336.384c-3.072-13.312-10.24-25.6-20.48-33.792s-24.576-12.288-37.888-13.312h-389.12c-13.312-1.024-26.624 4.096-37.888 12.288-10.24 8.192-17.408 20.48-20.48 33.792l-61.44 309.248h625.664l-58.368-308.224zM631.808 765.44c12.288 0 21.504 10.24 21.504 21.504v79.872c0 12.288-10.24 21.504-21.504 21.504-12.288 0-21.504-10.24-21.504-21.504v-79.872c0-11.264 9.216-21.504 21.504-21.504zM741.376 767.488c3.072-2.048 6.144-2.048 9.216-2.048 8.192 0 15.36 4.096 19.456 12.288l39.936 79.872c5.12 11.264 1.024 23.552-10.24 29.696-11.264 5.12-23.552 1.024-29.696-10.24l-39.936-79.872c-3.072-11.264 1.024-23.552 11.264-29.696zM492.544 777.728c4.096-7.168 11.264-12.288 19.456-12.288 3.072 0 6.144 1.024 9.216 2.048 10.24 5.12 15.36 18.432 10.24 29.696l-39.936 79.872c-5.12 10.24-18.432 15.36-29.696 10.24-10.24-5.12-15.36-18.432-10.24-29.696l40.96-79.872z" />
<glyph unicode="&#xe919;" glyph-name="trash" d="M898.048 737.792h-182.272v53.248c0 31.744-12.288 61.44-34.816 82.944-22.528 22.528-52.224 34.816-82.944 34.816h-172.032c-31.744 0-61.44-12.288-82.944-34.816-22.528-22.528-34.816-52.224-34.816-82.944v-53.248h-182.272c-17.408 0-31.744-14.336-31.744-31.744s14.336-31.744 31.744-31.744h53.248v-568.32c0-31.744 12.288-61.44 34.816-82.944 22.528-22.528 52.224-34.816 82.944-34.816h429.056c31.744 0 61.44 12.288 82.944 34.816 22.528 22.528 34.816 52.224 34.816 82.944v567.296h53.248c17.408 0 31.744 14.336 31.744 31.744 1.024 17.408-13.312 32.768-30.72 32.768zM372.736 791.040c0 14.336 5.12 27.648 15.36 37.888s23.552 15.36 37.888 15.36h171.008c14.336 0 27.648-5.12 37.888-15.36s15.36-23.552 15.36-37.888v-53.248h-277.504v53.248zM780.288 104.96c0-14.336-5.12-27.648-15.36-37.888s-23.552-15.36-37.888-15.36h-429.056c-14.336 0-27.648 6.144-37.888 15.36-10.24 10.24-15.36 23.552-15.36 37.888v568.32h535.552v-568.32z" />
<glyph unicode="&#xe91a;" glyph-name="user" d="M880.64-12.8c-25.6 0-46.080 20.48-46.080 46.080v92.16c0 36.864-14.336 71.68-40.96 97.28s-60.416 40.96-97.28 40.96h-368.64c-36.864 0-71.68-14.336-97.28-40.96s-40.96-60.416-40.96-97.28v-92.16c0-25.6-20.48-46.080-46.080-46.080s-46.080 20.48-46.080 46.080v92.16c0 61.44 23.552 119.808 67.584 162.816s101.376 67.584 162.816 67.584h368.64c61.44 0 119.808-23.552 162.816-67.584 43.008-43.008 67.584-101.376 67.584-162.816v-92.16c0-25.6-20.48-46.080-46.080-46.080zM512 448c-126.976 0-230.4 103.424-230.4 230.4s103.424 230.4 230.4 230.4c126.976 0 230.4-103.424 230.4-230.4s-103.424-230.4-230.4-230.4zM512 816.64c-75.776 0-138.24-62.464-138.24-138.24s62.464-138.24 138.24-138.24c75.776 0 138.24 62.464 138.24 138.24s-62.464 138.24-138.24 138.24z" />
<glyph unicode="&#xe91b;" glyph-name="shopping-bag" d="M927.744 714.24c-1.024 2.048-2.048 3.072-2.048 4.096-1.024 2.048-2.048 4.096-3.072 6.144l-125.952 167.936c-8.192 10.24-20.48 16.384-33.792 16.384h-501.76c-13.312 0-25.6-6.144-33.792-16.384l-125.952-167.936c-1.024-2.048-2.048-4.096-3.072-6.144-1.024-1.024-2.048-3.072-2.048-4.096-2.048-5.12-3.072-9.216-3.072-15.36v-586.752c0-33.792 13.312-65.536 36.864-89.088s55.296-36.864 89.088-36.864h586.752c33.792 0 65.536 13.312 89.088 36.864s36.864 55.296 36.864 89.088v586.752c-1.024 5.12-2.048 10.24-4.096 15.36zM281.6 824.832h460.8l62.464-83.968h-585.728l62.464 83.968zM834.56 83.456c-8.192-8.192-18.432-12.288-29.696-12.288h-585.728c-11.264 0-21.504 4.096-29.696 12.288s-12.288 18.432-12.288 29.696v544.768h670.72v-544.768c-1.024-11.264-5.12-21.504-13.312-29.696zM679.936 573.952c-23.552 0-41.984-18.432-41.984-41.984 0-33.792-13.312-65.536-36.864-89.088-47.104-47.104-130.048-47.104-178.176 0-23.552 23.552-36.864 55.296-36.864 89.088 0 23.552-18.432 41.984-41.984 41.984s-41.984-18.432-41.984-41.984c0-56.32 21.504-108.544 61.44-148.48s92.16-61.44 148.48-61.44c56.32 0 108.544 21.504 148.48 61.44s61.44 92.16 61.44 148.48c0 22.528-19.456 41.984-41.984 41.984z" />
<glyph unicode="&#xe91c;" glyph-name="shopping-cart-icon" d="M473.088 83.456c0-42.415-34.385-76.8-76.8-76.8s-76.8 34.385-76.8 76.8c0 42.415 34.385 76.8 76.8 76.8s76.8-34.385 76.8-76.8zM896 83.456c0-42.415-34.385-76.8-76.8-76.8s-76.8 34.385-76.8 76.8c0 42.415 34.385 76.8 76.8 76.8s76.8-34.385 76.8-76.8zM420.864 237.056c-25.6 0-51.2 9.216-71.68 25.6-21.504 17.408-35.84 40.96-40.96 67.584l-64.512 320.512c0 1.024 0 2.048-1.024 3.072l-31.744 159.744h-121.856c-21.504 0-37.888 17.408-37.888 37.888s17.408 37.888 37.888 37.888h153.6c18.432 0 33.792-13.312 37.888-30.72l31.744-160.768h621.568c11.264 0 22.528-5.12 29.696-14.336s10.24-20.48 8.192-31.744l-61.44-322.56c-5.12-26.624-19.456-50.176-40.96-67.584s-47.104-25.6-74.752-25.6h-371.712c-1.024 1.024-1.024 1.024-2.048 1.024zM328.704 621.056l55.296-276.48c2.048-9.216 6.144-16.384 13.312-22.528s16.384-9.216 24.576-8.192h373.76c10.24 0 18.432 3.072 25.6 8.192 7.168 6.144 12.288 13.312 13.312 22.528l52.224 276.48h-558.080z" />
</font>
</defs>
</svg>
